<svg width="480" height="128" viewBox="0 0 480 128" fill="none" xmlns="http://www.w3.org/2000/svg">
<path d="M65.0567 84.2608C75.8507 84.2608 84.6009 75.5106 84.6009 64.7166C84.6009 53.9227 75.8507 45.1725 65.0567 45.1725C54.2628 45.1725 45.5126 53.9227 45.5126 64.7166C45.5126 75.5106 54.2628 84.2608 65.0567 84.2608Z" fill="#0E1C3D"/>
<path d="M14.634 76.2774C14.0456 73.8897 11.633 72.4303 9.24382 73.0194C6.85561 73.608 5.39693 76.0213 5.98577 78.4095C7.29247 83.7093 9.32211 88.809 12.0186 93.567C12.8385 95.0134 14.3455 95.8257 15.8974 95.8257C16.6414 95.8257 17.3957 95.6387 18.0892 95.2458C20.229 94.0329 20.9807 91.3151 19.768 89.1753C17.473 85.1257 15.7457 80.7861 14.634 76.2774Z" fill="#0E1C3D"/>
<path d="M64.3232 3.90143C50.5746 3.90143 37.4706 8.55667 26.9365 16.9468C25.3831 16.3184 23.7098 15.9849 22.0016 15.9861C14.7415 15.9861 8.85608 21.8716 8.85608 29.1316C8.85608 36.3917 14.7415 42.2772 22.0016 42.2772C29.2617 42.2772 35.1472 36.3917 35.1472 29.1316C35.1486 26.9831 34.622 24.8893 33.6421 23.0211C42.4081 16.4422 53.1144 12.8086 64.3232 12.8086C92.5407 12.8086 115.497 35.7653 115.497 63.9828C115.497 92.2009 92.5407 115.158 64.3232 115.158C52.2956 115.158 40.6097 110.903 31.4179 103.177C29.5351 101.595 26.7255 101.839 25.1431 103.721C23.5605 105.604 23.8041 108.413 25.687 109.996C36.4811 119.068 50.2022 124.065 64.3232 124.065C97.4522 124.065 124.405 97.1121 124.405 63.9828C124.405 30.8538 97.4522 3.90143 64.3232 3.90143Z" fill="#0E1C3D"/>
<path d="M139.511 123V54.6364H163.879C179.734 54.6364 187.545 63.4822 187.545 76.0668C187.545 85.2464 183.373 92.223 174.994 95.3274L190.149 123H178.399L164.513 97.13C164.279 97.13 164.079 97.13 163.845 97.13H149.825V123H139.511ZM149.825 88.2507H162.911C172.958 88.2507 177.164 83.7777 177.164 76.0668C177.164 68.3224 172.958 63.4822 162.777 63.4822H149.825V88.2507Z" fill="#0E1C3D"/>
<path d="M200.097 123V54.6364H225.132C239.686 54.6364 246.696 62.4808 246.696 72.5952C246.696 81.1406 241.455 85.4133 235.18 87.0156V87.6832C241.956 88.0504 249.366 94.0256 249.366 104.607C249.366 115.089 242.19 123 226.3 123H200.097ZM210.411 114.154H225.299C235.213 114.154 239.119 109.848 239.119 104.107C239.119 97.5973 233.945 92.2564 225.666 92.2564H210.411V114.154ZM210.411 84.2116H224.231C231.174 84.2116 236.582 80.0057 236.582 73.3963C236.582 67.7216 232.676 63.4155 224.498 63.4155H210.411V84.2116Z" fill="#0E1C3D"/>
<path d="M271.915 54.6364V123H261.6V54.6364H271.915Z" fill="#0E1C3D"/>
<path d="M283.565 63.5156V54.6364H336.473V63.5156H315.143V123H304.862V63.5156H283.565Z" fill="#0E1C3D"/>
<path d="M348.165 123V54.6364H391.026V63.5156H358.48V84.3452H388.789V93.191H358.48V114.121H391.426V123H348.165Z" fill="#0E1C3D"/>
<path d="M404.804 123V54.6364H429.172C445.027 54.6364 452.838 63.4822 452.838 76.0668C452.838 85.2464 448.666 92.223 440.287 95.3274L455.442 123H443.692L429.806 97.13C429.572 97.13 429.372 97.13 429.138 97.13H415.118V123H404.804ZM415.118 88.2507H428.203C438.251 88.2507 442.457 83.7777 442.457 76.0668C442.457 68.3224 438.251 63.4822 428.07 63.4822H415.118V88.2507Z" fill="#0E1C3D"/>
</svg>
